<svg width="392" height="224" viewBox="0 0 392 224" fill="none" xmlns="http://www.w3.org/2000/svg">
<rect width="392" height="224" fill="#3C464E"/>
<path d="M178 100.5C178 98.018 180.018 96 182.5 96H209.5C211.982 96 214 98.018 214 100.5V123C214 125.482 211.982 127.5 209.5 127.5H182.5C180.018 127.5 178 125.482 178 123V100.5ZM200.767 107.988C200.451 107.524 199.93 107.25 199.375 107.25C198.82 107.25 198.292 107.524 197.983 107.988L191.866 116.96L190.002 114.633C189.679 114.232 189.194 114 188.688 114C188.181 114 187.689 114.232 187.373 114.633L182.873 120.258C182.465 120.764 182.388 121.46 182.669 122.044C182.95 122.627 183.541 123 184.188 123H207.812C208.438 123 209.015 122.655 209.303 122.1C209.591 121.545 209.556 120.877 209.205 120.363L200.767 107.988ZM185.875 107.25C186.77 107.25 187.629 106.894 188.261 106.261C188.894 105.629 189.25 104.77 189.25 103.875C189.25 102.98 188.894 102.121 188.261 101.489C187.629 100.856 186.77 100.5 185.875 100.5C184.98 100.5 184.121 100.856 183.489 101.489C182.856 102.121 182.5 102.98 182.5 103.875C182.5 104.77 182.856 105.629 183.489 106.261C184.121 106.894 184.98 107.25 185.875 107.25Z" fill="#8D8D8D"/>
</svg>
