<svg width="21" height="21" viewBox="0 0 21 21" fill="none" xmlns="http://www.w3.org/2000/svg">
<path d="M6.32812 2.25C5.62914 2.25 5.0625 2.75368 5.0625 3.375C5.0625 3.99632 5.62914 4.5 6.32812 4.5C7.02711 4.5 7.59375 3.99632 7.59375 3.375C7.59375 2.75368 7.02711 2.25 6.32812 2.25ZM2.7473 2.25C3.26853 0.939159 4.67494 0 6.32812 0C7.98131 0 9.38772 0.939159 9.90895 2.25H18.9844C19.6834 2.25 20.25 2.75368 20.25 3.375C20.25 3.99632 19.6834 4.5 18.9844 4.5H9.90895C9.38772 5.81084 7.98131 6.75 6.32812 6.75C4.67494 6.75 3.26853 5.81084 2.7473 4.5H1.26562C0.56664 4.5 0 3.99632 0 3.375C0 2.75368 0.56664 2.25 1.26562 2.25H2.7473ZM13.9219 9C13.2229 9 12.6562 9.50368 12.6562 10.125C12.6562 10.7463 13.2229 11.25 13.9219 11.25C14.6209 11.25 15.1875 10.7463 15.1875 10.125C15.1875 9.50368 14.6209 9 13.9219 9ZM10.341 9C10.8623 7.68916 12.2687 6.75 13.9219 6.75C15.5751 6.75 16.9815 7.68916 17.5027 9H18.9844C19.6834 9 20.25 9.50368 20.25 10.125C20.25 10.7463 19.6834 11.25 18.9844 11.25H17.5027C16.9815 12.5608 15.5751 13.5 13.9219 13.5C12.2687 13.5 10.8623 12.5608 10.341 11.25H1.26562C0.56664 11.25 0 10.7463 0 10.125C0 9.50368 0.56664 9 1.26562 9H10.341ZM6.32812 15.75C5.62914 15.75 5.0625 16.2537 5.0625 16.875C5.0625 17.4963 5.62914 18 6.32812 18C7.02711 18 7.59375 17.4963 7.59375 16.875C7.59375 16.2537 7.02711 15.75 6.32812 15.75ZM2.7473 15.75C3.26853 14.4392 4.67494 13.5 6.32812 13.5C7.98131 13.5 9.38772 14.4392 9.90895 15.75H18.9844C19.6834 15.75 20.25 16.2537 20.25 16.875C20.25 17.4963 19.6834 18 18.9844 18H9.90895C9.38772 19.3108 7.98131 20.25 6.32812 20.25C4.67494 20.25 3.26853 19.3108 2.7473 18H1.26562C0.56664 18 0 17.4963 0 16.875C0 16.2537 0.56664 15.75 1.26562 15.75H2.7473Z" fill="#1F2226"/>
</svg>
