<svg width="27" height="27" viewBox="0 0 27 27" fill="none" xmlns="http://www.w3.org/2000/svg">
<path d="M10.125 2.25C10.7463 2.25 11.25 2.75368 11.25 3.375V4.5H15.75V3.375C15.75 2.75368 16.2537 2.25 16.875 2.25C17.4963 2.25 18 2.75368 18 3.375V4.5H21.375C22.6176 4.5 23.625 5.50736 23.625 6.75V21.375C23.625 22.6176 22.6176 23.625 21.375 23.625H5.625C4.38236 23.625 3.375 22.6176 3.375 21.375V6.75C3.375 5.50736 4.38236 4.5 5.625 4.5H9V3.375C9 2.75368 9.50368 2.25 10.125 2.25ZM9 6.75H5.625V10.125H21.375V6.75H18V7.875C18 8.49632 17.4963 9 16.875 9C16.2537 9 15.75 8.49632 15.75 7.875V6.75H11.25V7.875C11.25 8.49632 10.7463 9 10.125 9C9.50368 9 9 8.49632 9 7.875V6.75ZM21.375 12.375H5.625V21.375H21.375V12.375Z" fill="#1F2226"/>
</svg>
