<svg width="21" height="21" viewBox="0 0 21 21" fill="none" xmlns="http://www.w3.org/2000/svg">
<path d="M0.375 2.625C0.375 1.38236 1.38236 0.375 2.625 0.375H7.125C8.36764 0.375 9.375 1.38236 9.375 2.625V7.125C9.375 8.36764 8.36764 9.375 7.125 9.375H2.625C1.38236 9.375 0.375 8.36764 0.375 7.125V2.625ZM7.125 2.625H2.625V7.125H7.125V2.625ZM11.625 2.625C11.625 1.38236 12.6324 0.375 13.875 0.375H18.375C19.6176 0.375 20.625 1.38236 20.625 2.625V7.125C20.625 8.36764 19.6176 9.375 18.375 9.375H13.875C12.6324 9.375 11.625 8.36764 11.625 7.125V2.625ZM18.375 2.625H13.875V7.125H18.375V2.625ZM0.375 13.875C0.375 12.6324 1.38236 11.625 2.625 11.625H7.125C8.36764 11.625 9.375 12.6324 9.375 13.875V18.375C9.375 19.6176 8.36764 20.625 7.125 20.625H2.625C1.38236 20.625 0.375 19.6176 0.375 18.375V13.875ZM7.125 13.875H2.625V18.375H7.125V13.875ZM11.625 13.875C11.625 12.6324 12.6324 11.625 13.875 11.625H18.375C19.6176 11.625 20.625 12.6324 20.625 13.875V18.375C20.625 19.6176 19.6176 20.625 18.375 20.625H13.875C12.6324 20.625 11.625 19.6176 11.625 18.375V13.875ZM18.375 13.875H13.875V18.375H18.375V13.875Z" fill="#22272E"/>
</svg>
