<svg width="21" height="20" viewBox="0 0 21 20" fill="none" xmlns="http://www.w3.org/2000/svg">
<path d="M14 5.5V3.25C14 2.65326 13.751 2.08097 13.3077 1.65901C12.8644 1.23705 12.2632 1 11.6364 1H3.36364C2.73676 1 2.13556 1.23705 1.69229 1.65901C1.24903 2.08097 1 2.65326 1 3.25V16.75C1 17.3467 1.24903 17.919 1.69229 18.341C2.13556 18.7629 2.73676 19 3.36364 19H11.6364C12.2632 19 12.8644 18.7629 13.3077 18.341C13.751 17.919 14 17.3467 14 16.75V14.5" stroke="#1F2226" stroke-width="2" stroke-linecap="round" stroke-linejoin="round"/>
<path d="M8 9.5H20M20 9.5L17 6M20 9.5L17 13" stroke="#1F2226" stroke-width="2" stroke-linecap="round" stroke-linejoin="round"/>
</svg>
