<svg width="21" height="21" viewBox="0 0 21 21" fill="none" xmlns="http://www.w3.org/2000/svg">
<path d="M6.76732 0.0577313C6.97515 -0.0192438 7.19985 -0.0192438 7.40768 0.0577313L13.1625 2.18915L17.5846 0.551317C18.8959 0.0656681 20.25 1.1501 20.25 2.68585V16.0641C20.25 17.0326 19.6923 17.8924 18.8654 18.1987L13.4827 20.1923C13.2748 20.2692 13.0502 20.2692 12.8423 20.1923L7.0875 18.0609L2.66536 19.6987C1.35411 20.1843 0 19.0999 0 17.5641V4.18585C0 3.21739 0.557746 2.35757 1.38464 2.05132L6.76732 0.0577313ZM8.1 16.0641L12.15 17.5641V4.18585L8.1 2.68585V16.0641ZM6.075 2.68585L2.025 4.18585V17.5641L6.075 16.0641V2.68585ZM14.175 4.18585V17.5641L18.225 16.0641V2.68585L14.175 4.18585Z" fill="#1F2226"/>
</svg>
