<svg width="27" height="27" viewBox="0 0 27 27" fill="none" xmlns="http://www.w3.org/2000/svg">
<path d="M24.75 22.5H2.25V20.25H3.375V12.4099C3.375 6.79838 7.90875 2.25 13.5 2.25C19.0912 2.25 23.625 6.79838 23.625 12.4099V20.25H24.75V22.5ZM5.625 20.25H21.375V12.4099C21.375 8.0415 17.8492 4.5 13.5 4.5C9.15075 4.5 5.625 8.0415 5.625 12.4099V20.25ZM10.6875 23.625H16.3125C16.3125 24.3709 16.0162 25.0863 15.4887 25.6137C14.9613 26.1412 14.2459 26.4375 13.5 26.4375C12.7541 26.4375 12.0387 26.1412 11.5113 25.6137C10.9838 25.0863 10.6875 24.3709 10.6875 23.625Z" fill="#9F9F9F"/>
</svg>
